<svg width="180" height="180" viewBox="0 0 180 180" fill="none" xmlns="http://www.w3.org/2000/svg">
  <defs>
    <linearGradient id="tile" x1="38" y1="31" x2="148" y2="154" gradientUnits="userSpaceOnUse">
      <stop stop-color="#9BE8D5"/>
      <stop offset="1" stop-color="#2AA98E"/>
    </linearGradient>
    <filter id="softShadow" x="0" y="0" width="180" height="180" filterUnits="userSpaceOnUse" color-interpolation-filters="sRGB">
      <feDropShadow dx="0" dy="18" stdDeviation="14" flood-color="#1F6D6E" flood-opacity=".18"/>
    </filter>
  </defs>
  <g filter="url(#softShadow)">
    <rect x="26" y="24" width="128" height="128" rx="34" fill="url(#tile)"/>
    <path d="M89.5 130C63.5 116.6 45 98.8 45 76.8C45 59.7 56.6 49 70.1 49C78.6 49 85.2 53 89.5 59.2C93.8 53 100.4 49 108.9 49C122.4 49 134 59.7 134 76.8C134 98.8 115.5 116.6 89.5 130Z" stroke="white" stroke-width="11" stroke-linecap="round" stroke-linejoin="round"/>
    <rect x="62" y="74" width="56" height="34" rx="17" fill="white"/>
    <circle cx="77" cy="91" r="4.8" fill="#25343A"/>
    <circle cx="103" cy="91" r="4.8" fill="#25343A"/>
    <path d="M82 91H98" stroke="#25343A" stroke-width="3.2" stroke-linecap="round"/>
  </g>
</svg>
